<svg id="Capa_1" enable-background="new 0 0 512 512" height="512" viewBox="0 0 512 512" width="512" xmlns="http://www.w3.org/2000/svg"><path d="m39.565 239.968h432.871v48.097h-432.871z" fill="#95d6a4"/><g fill="#78c2a4"><path d="m90.291 288.064h165.652c-41.42 0-41.42-32.065-82.84-32.065-41.407.001-41.407 32.065-82.812 32.065z"/><path d="m39.565 288.064h50.726c-26.726 0-36.23-13.34-50.726-22.813z"/><path d="m255.943 288.064h165.686c-41.435 0-41.435-32.065-82.871-32.065-41.408.001-41.408 32.065-82.815 32.065z"/><path d="m421.629 288.064h50.807v-22.833c-14.528 9.475-24.036 22.833-50.807 22.833z"/></g><path d="m191.871 247.984h-160.323c-4.427 0-8.016-3.589-8.016-8.016v-16.032c0-4.427 3.589-8.016 8.016-8.016h160.323c4.427 0 8.016 3.589 8.016 8.016v16.032c0 4.427-3.589 8.016-8.016 8.016z" fill="#db4655"/><path d="m480.452 247.984h-160.323c-4.427 0-8.016-3.589-8.016-8.016v-16.032c0-4.427 3.589-8.016 8.016-8.016h160.323c4.427 0 8.016 3.589 8.016 8.016v16.032c0 4.427-3.589 8.016-8.016 8.016z" fill="#ff8086"/><path d="m336.161 247.984h-160.322c-4.427 0-8.016-3.589-8.016-8.016v-16.032c0-4.427 3.589-8.016 8.016-8.016h160.323c4.427 0 8.016 3.589 8.016 8.016v16.032c-.001 4.427-3.59 8.016-8.017 8.016z" fill="#e5646e"/><path d="m472.435 280.048h-16.547c-8.423 8.822-18.236 16.032-34.26 16.032-16.022 0-25.835-7.21-34.258-16.032h-97.192c-8.417 8.822-18.222 16.032-34.235 16.032-16.019 0-25.827-7.21-34.247-16.032h-97.172c-8.416 8.822-18.222 16.032-34.234 16.032-16.008 0-25.811-7.21-34.226-16.032h-16.5c-17.709 0-32.065 14.356-32.065 32.065 0 17.708 14.355 32.065 32.065 32.065h432.871c17.709 0 32.065-14.356 32.065-32.065s-14.355-32.065-32.065-32.065z" fill="#b4505a"/><path d="m256 87.661c-137.243 0-248.5 44.503-248.5 99.4v20.842c0 4.427 3.589 8.016 8.016 8.016h480.968c4.427 0 8.016-3.589 8.016-8.016v-20.842c0-54.897-111.257-99.4-248.5-99.4z" fill="#ffd97d"/><path d="m167.823 191.871c-13.282 0-24.048-10.767-24.048-24.048v-24.048c0-18.76 13.007-36.302 35.589-51.273-99.729 12.922-171.864 50.362-171.864 94.559v20.842c0 4.427 3.589 8.016 8.016 8.016h480.968c4.427 0 8.016-3.589 8.016-8.016v-16.032z" fill="#ffc269"/><path d="m456.403 424.339h-400.806c-26.563 0-48.097-21.534-48.097-48.097v-16.032c0-8.854 7.178-16.032 16.032-16.032h464.935c8.854 0 16.032 7.178 16.032 16.032v16.032c.001 26.563-21.533 48.097-48.096 48.097z" fill="#ffd97d"/><path d="m191.871 400.29c-26.563 0-48.097-21.534-48.097-48.097v-8.016h-120.242c-8.854 0-16.032 7.178-16.032 16.032v16.032c0 26.563 21.534 48.097 48.097 48.097h400.806c14.227 0 26.972-6.214 35.778-16.032l5.556-8.016z" fill="#ffc269"/><path d="m466.453 280.048h-10.564c-8.423 8.822-18.236 16.032-34.26 16.032-16.022 0-25.835-7.21-34.258-16.032h-97.192c-8.417 8.822-18.222 16.032-34.235 16.032-16.019 0-25.827-7.21-34.247-16.032h-77.922v8.016c0 17.709 14.356 32.065 32.065 32.065h327.528c1.763-6.807 2.119-14.16-3.804-23.016-7.305-10.922-19.972-17.065-33.111-17.065z" fill="#c86e64"/><path d="m496.484 223.419c8.556 0 15.516-6.96 15.516-15.516v-20.842c0-59.944-112.449-106.9-256-106.9s-256 46.956-256 106.9v20.842c0 8.556 6.96 15.516 15.516 15.516h.516v17.703c-2.671-.414-5.507-.639-8.532-.639-4.142 0-7.5 3.358-7.5 7.5s3.358 7.5 7.5 7.5c15.022 0 23.447 7.53 31.909 17.068-21.744.086-39.409 17.798-39.409 39.562 0 10.864 4.403 20.717 11.516 27.874-6.889 4.109-11.516 11.634-11.516 20.223v16.032c0 30.656 24.94 55.597 55.597 55.597h400.807c30.656 0 55.597-24.941 55.597-55.597v-16.032c0-8.588-4.627-16.113-11.516-20.223 7.113-7.157 11.516-17.01 11.516-27.874 0-21.776-17.684-39.496-39.445-39.562 8.47-9.538 16.905-17.067 31.945-17.067 4.142 0 7.5-3.358 7.5-7.5s-3.358-7.5-7.5-7.5c-3.025 0-5.861.224-8.532.637v-17.702zm-464.936 17.065c-.285 0-.516-.231-.516-.516v-16.548h129.291v17.064zm105.224 15c-3.935 3.729-7.417 7.773-10.76 11.655-9.904 11.505-18.458 21.441-35.722 21.441-17.257 0-25.809-9.936-35.711-21.441-3.342-3.883-6.823-7.926-10.757-11.656h92.95zm360.228 120.758c0 22.385-18.211 40.597-40.597 40.597h-400.806c-22.386 0-40.597-18.212-40.597-40.597v-16.032c0-4.705 3.828-8.532 8.532-8.532h464.936c4.705 0 8.532 3.828 8.532 8.532zm0-64.129c0 13.545-11.02 24.565-24.564 24.565h-27.429l-5.943-11.886c-1.852-3.705-6.357-5.207-10.062-3.354s-5.207 6.357-3.354 10.062l2.589 5.178h-180.769v-.516c0-4.142-3.358-7.5-7.5-7.5s-7.5 3.358-7.5 7.5v.516h-116.64l2.589-5.178c1.853-3.705.351-8.21-3.354-10.062s-8.21-.351-10.062 3.354l-5.943 11.886h-59.494c-13.544-.001-24.564-11.02-24.564-24.565s11.02-24.564 24.564-24.564h13.333c2.771 2.721 5.765 5.299 9.094 7.563l-3.682 3.682c-2.929 2.929-2.929 7.677 0 10.606 1.464 1.465 3.384 2.197 5.303 2.197s3.839-.732 5.303-2.197l7.574-7.574c4.134 1.116 8.698 1.755 13.8 1.755 24.143 0 36.333-14.161 47.09-26.655 9.905-11.505 18.458-21.442 35.722-21.442 15.031 0 23.462 7.528 31.928 17.064h-37.208c-4.142 0-7.5 3.358-7.5 7.5s3.358 7.5 7.5 7.5h50.708c8.905 8.737 20.079 16.032 37.412 16.032 17.328 0 28.499-7.295 37.402-16.032h39.71l13.835 13.835c1.464 1.465 3.384 2.197 5.303 2.197s3.839-.732 5.303-2.197c2.929-2.929 2.929-7.677 0-10.606l-3.229-3.229h29.937c8.908 8.737 20.086 16.032 37.424 16.032s28.516-7.295 37.424-16.032h13.383c13.547 0 24.567 11.02 24.567 24.565zm-160.323-71.629h-161.354v-17.064h161.354zm2.08 15c15.038 0 23.473 7.528 31.942 17.064h-34.536c-.002 0-.003 0-.005 0h-29.318c8.464-9.537 16.892-17.064 31.917-17.064zm-36.331 0c-3.935 3.729-7.417 7.772-10.76 11.655-9.905 11.505-18.459 21.442-35.723 21.442-17.271 0-25.829-9.937-35.737-21.443-3.343-3.882-6.826-7.925-10.762-11.654zm72.684 0h93.037c-3.937 3.729-7.421 7.771-10.765 11.653-9.913 11.506-18.474 21.444-35.753 21.444s-25.841-9.937-35.754-21.444c-3.344-3.882-6.828-7.924-10.765-11.653zm105.858-15.516c0 .285-.231.516-.516.516h-128.775v-17.064h80.678c4.142 0 7.5-3.358 7.5-7.5s-3.358-7.5-7.5-7.5h-416.839c-.285 0-.516-.231-.516-.516v-20.842c0-22.939 24.811-46.019 68.069-63.323 46.071-18.429 107.486-28.578 172.931-28.578s126.86 10.149 172.93 28.577c43.26 17.304 68.07 40.384 68.07 63.323v20.842c0 .285-.231.516-.516.516h-32.064c-4.142 0-7.5 3.358-7.5 7.5s3.358 7.5 7.5 7.5h16.548z"/><path d="m119.726 159.29c1.919 0 3.839-.732 5.303-2.197l8.016-8.016c2.929-2.929 2.929-7.677 0-10.606s-7.678-2.929-10.606 0l-8.016 8.016c-2.929 2.929-2.929 7.677 0 10.606 1.464 1.465 3.383 2.197 5.303 2.197z"/><path d="m218.632 141.061c1.464 1.465 3.384 2.197 5.303 2.197s3.839-.732 5.303-2.197c2.929-2.929 2.929-7.677 0-10.606l-8.016-8.016c-2.929-2.929-7.678-2.929-10.606 0-2.929 2.929-2.929 7.677 0 10.606z"/><path d="m330.858 181.142c1.464 1.465 3.384 2.197 5.303 2.197s3.839-.732 5.303-2.197c2.929-2.929 2.929-7.677 0-10.606l-8.016-8.016c-2.929-2.929-7.678-2.929-10.606 0-2.929 2.929-2.929 7.677 0 10.606z"/><path d="m384.258 167.306c1.919 0 3.839-.732 5.303-2.197l8.016-8.016c2.929-2.929 2.929-7.677 0-10.606s-7.678-2.929-10.606 0l-8.016 8.016c-2.929 2.929-2.929 7.677 0 10.606 1.464 1.465 3.384 2.197 5.303 2.197z"/><path d="m304.097 143.258c4.142 0 7.5-3.358 7.5-7.5v-8.016c0-4.142-3.358-7.5-7.5-7.5s-7.5 3.358-7.5 7.5v8.016c0 4.142 3.358 7.5 7.5 7.5z"/><path d="m168.339 175.839c0 4.142 3.358 7.5 7.5 7.5h8.016c4.142 0 7.5-3.358 7.5-7.5s-3.358-7.5-7.5-7.5h-8.016c-4.142 0-7.5 3.357-7.5 7.5z"/><path d="m256 183.339c1.919 0 3.839-.732 5.303-2.197l8.016-8.016c2.929-2.929 2.929-7.677 0-10.606s-7.678-2.929-10.606 0l-8.016 8.016c-2.929 2.929-2.929 7.677 0 10.606 1.464 1.464 3.384 2.197 5.303 2.197z"/><path d="m424.339 183.339h8.016c4.142 0 7.5-3.358 7.5-7.5s-3.358-7.5-7.5-7.5h-8.016c-4.142 0-7.5 3.358-7.5 7.5s3.358 7.5 7.5 7.5z"/><path d="m74.342 181.142c1.464 1.465 3.384 2.197 5.303 2.197s3.839-.732 5.303-2.197c2.929-2.929 2.929-7.677 0-10.606l-8.016-8.016c-2.929-2.929-7.678-2.929-10.606 0-2.929 2.929-2.929 7.677 0 10.606z"/><path d="m167.903 143.258c4.142 0 7.5-3.358 7.5-7.5s-3.358-7.5-7.5-7.5h-.08c-4.142 0-7.46 3.358-7.46 7.5s3.398 7.5 7.54 7.5z"/><path d="m352.193 143.258c4.142 0 7.5-3.358 7.5-7.5s-3.358-7.5-7.5-7.5h-.08c-4.142 0-7.46 3.358-7.46 7.5s3.398 7.5 7.54 7.5z"/><path d="m264.096 127.226c4.142 0 7.5-3.358 7.5-7.5s-3.358-7.5-7.5-7.5h-.08c-4.142 0-7.46 3.358-7.46 7.5s3.398 7.5 7.54 7.5z"/><path d="m312.113 304.613h-8.016c-4.142 0-7.5 3.358-7.5 7.5s3.358 7.5 7.5 7.5h8.016c4.142 0 7.5-3.358 7.5-7.5s-3.358-7.5-7.5-7.5z"/><path d="m173.126 306.809c-2.928-2.929-7.677-2.929-10.606 0s-2.929 7.678 0 10.607l8.016 8.016c1.464 1.465 3.384 2.197 5.303 2.197s3.839-.732 5.303-2.197c2.929-2.929 2.929-7.678 0-10.607z"/><path d="m464.419 304.613c-4.142 0-7.5 3.358-7.5 7.5s3.358 7.5 7.5 7.5h8.016c4.142 0 7.5-3.358 7.5-7.5s-3.358-7.5-7.5-7.5z"/></svg>