<?xml version="1.0" encoding="iso-8859-1"?>
<!-- Generator: Adobe Illustrator 19.0.0, SVG Export Plug-In . SVG Version: 6.00 Build 0)  -->
<svg version="1.1" id="Layer_1" xmlns="http://www.w3.org/2000/svg" xmlns:xlink="http://www.w3.org/1999/xlink" x="0px" y="0px"
	 viewBox="0 0 512 512" style="enable-background:new 0 0 512 512;" xml:space="preserve">
<g>
	<g>
		<path d="M486.4,204.8h-32.299c-4.779-18.466-12.134-36.233-21.82-52.676l22.835-22.844c10.001-10.001,10.001-26.206,0-36.207
			L418.91,56.866c-4.804-4.804-11.315-7.501-18.099-7.501c-6.793,0-13.303,2.697-18.099,7.501L359.868,79.71
			c-16.435-9.677-34.202-17.033-52.668-21.811V25.6c0-14.14-11.46-25.6-25.6-25.6h-51.2c-14.14,0-25.6,11.46-25.6,25.6v32.299
			c-18.466,4.779-36.233,12.134-52.676,21.82l-22.835-22.844c-4.804-4.804-11.315-7.501-18.099-7.501S97.886,52.07,93.09,56.875
			L56.883,93.082c-10.001,10.001-10.001,26.206,0,36.207l22.844,22.844c-9.694,16.435-17.05,34.202-21.828,52.668H25.6
			C11.46,204.8,0,216.26,0,230.4v51.2c0,14.14,11.46,25.6,25.6,25.6h32.299c4.779,18.466,12.134,36.233,21.82,52.676L56.875,382.72
			c-10.001,10.001-10.001,26.206,0,36.207l36.207,36.207c5.001,5.001,11.554,7.501,18.099,7.501c6.545,0,13.107-2.5,18.099-7.501
			l22.844-22.844c16.444,9.685,34.21,17.05,52.676,21.82v32.29c0,14.14,11.46,25.6,25.6,25.6h51.2c14.14,0,25.6-11.46,25.6-25.6
			v-32.299c18.466-4.779,36.233-12.134,52.676-21.82l22.844,22.844c5,5,11.554,7.501,18.099,7.501s13.107-2.5,18.099-7.501
			l36.198-36.207c10.001-10.001,10.001-26.206,0-36.207l-22.835-22.844c9.685-16.444,17.041-34.21,21.82-52.676H486.4
			c14.14,0,25.6-11.46,25.6-25.6v-51.2C512,216.26,500.54,204.8,486.4,204.8z M486.4,281.6h-53.239
			c-4.352,30.327-16.239,58.138-33.792,81.57l37.641,37.641l-36.207,36.207l-37.641-37.641
			c-23.432,17.545-51.243,29.44-81.57,33.792V486.4h-51.2v-53.239c-30.327-4.352-58.138-16.239-81.57-33.792l-37.641,37.641
			l-36.207-36.207l37.641-37.641c-17.544-23.432-29.44-51.243-33.792-81.57H25.6v-51.2h53.24
			c4.352-30.327,16.239-58.138,33.792-81.57l-37.641-37.641l36.207-36.207l37.641,37.641c23.433-17.544,51.243-29.44,81.57-33.783
			V25.6h51.2v53.24c30.328,4.352,58.138,16.239,81.57,33.783l37.641-37.641l36.207,36.207l-37.641,37.641
			c17.544,23.432,29.44,51.243,33.792,81.57H486.4V281.6z"/>
	</g>
</g>
<g>
	<g>
		<path d="M256,128c-70.69,0-128,57.31-128,128s57.31,128,128,128s128-57.31,128-128S326.69,128,256,128z M256,358.4
			c-56.465,0-102.4-45.935-102.4-102.4S199.535,153.6,256,153.6S358.4,199.535,358.4,256S312.465,358.4,256,358.4z"/>
	</g>
</g>
<g>
</g>
<g>
</g>
<g>
</g>
<g>
</g>
<g>
</g>
<g>
</g>
<g>
</g>
<g>
</g>
<g>
</g>
<g>
</g>
<g>
</g>
<g>
</g>
<g>
</g>
<g>
</g>
<g>
</g>
</svg>
