<svg height="512" viewBox="0 0 128 128" width="512" xmlns="http://www.w3.org/2000/svg"><g><path d="m84.771 6.306h-41.542c-16.958 0-30.7 13.3-30.7 29.7a7.146 7.146 0 0 0 7.261 7.023h88.43a7.146 7.146 0 0 0 7.261-7.023c-.005-16.406-13.752-29.7-30.71-29.7z" fill="#ef983b"/><rect fill="#8c3f07" height="18.36" rx="7.637" width="91.777" x="18.111" y="66.611"/><path d="m108.215 84.971a7.146 7.146 0 0 1 7.261 7.023c0 16.4-13.747 29.7-30.7 29.7h-41.547c-16.958 0-30.7-13.3-30.7-29.7a7.146 7.146 0 0 1 7.261-7.023z" fill="#ef983b"/><path d="m53.245 66.611v8.148a5.184 5.184 0 0 0 5.185 5.185h3.77a5.184 5.184 0 0 1 5.185 5.185v1.7a5.184 5.184 0 0 0 5.185 5.181 5.184 5.184 0 0 1 5.184 5.19v6.221a5.184 5.184 0 0 0 5.185 5.185h1.7a5.184 5.184 0 0 0 5.184-5.185v-22.445a5.185 5.185 0 0 1 5.185-5.185h.565a5.184 5.184 0 0 0 5.185-5.184v-4z" fill="#ef3829"/><path d="m32.307 66.611v21.721a4.956 4.956 0 0 0 4.956 4.957h1.6a4.956 4.956 0 0 0 4.956-4.957v-21.721z" fill="#ef3829"/><path d="m121.637 54.862c-.621-3.9-6.139-9.358-9.927-12.7a7.417 7.417 0 0 1 -3.494.868h-88.431a7.421 7.421 0 0 1 -3.493-.867c-3.787 3.343-9.305 8.8-9.926 12.7-.955 6 10.368-4.438 16.083-4.438 3.846 0 5.959 6.253 11.416 6.25 7.5-.005 9.716-5.107 15.657-5.107 6.486 0 7.164 5.155 14.481 5.155s8-5.155 14.481-5.155c5.941 0 8.153 5.1 15.657 5.107 5.457 0 7.57-6.25 11.416-6.25 5.712-.001 17.035 10.439 16.08 4.437z" fill="#64bc0f"/><path d="m105.554 50.424c-3.846 0-5.959 6.253-11.416 6.25-7.5-.005-9.716-5.107-15.657-5.107-6.481 0-7.164 5.155-14.481 5.155s-7.995-5.155-14.481-5.155c-5.941 0-8.153 5.1-15.657 5.107-5.457 0-7.57-6.25-11.416-6.25a8.143 8.143 0 0 0 -2.479.474 7.607 7.607 0 0 0 -1.856 4.99v3.086a7.637 7.637 0 0 0 7.637 7.637h76.5a7.637 7.637 0 0 0 7.637-7.637v-3.086a7.6 7.6 0 0 0 -1.857-4.99 8.132 8.132 0 0 0 -2.474-.474z" fill="#8c3f07"/><g fill="#422002"><path d="m123.365 54.587c-.5-3.152-3.495-7.281-8.892-12.283a8.632 8.632 0 0 0 2.753-6.3c0-17.341-14.559-31.449-32.455-31.449h-4.939a1.75 1.75 0 0 0 0 3.5h4.939c15.966 0 28.955 12.538 28.955 27.949a5.4 5.4 0 0 1 -5.511 5.273h-88.43a5.4 5.4 0 0 1 -5.511-5.273c0-15.411 12.989-27.949 28.955-27.949h28.36a1.75 1.75 0 0 0 0-3.5h-28.36c-17.9 0-32.455 14.108-32.455 31.449a8.634 8.634 0 0 0 2.753 6.3c-5.4 5-8.39 9.129-8.892 12.282-.313 1.967.409 2.933 1.071 3.4 1.874 1.312 4.5-.144 8.482-2.35.733-.406 1.513-.837 2.3-1.253a9.357 9.357 0 0 0 -.128 1.508v3.087a9.374 9.374 0 0 0 3.949 7.636 9.377 9.377 0 0 0 -3.949 7.637v3.086a9.346 9.346 0 0 0 2.161 5.984 8.859 8.859 0 0 0 -7.748 8.676c0 17.341 14.559 31.449 32.455 31.449h3.9a1.75 1.75 0 0 0 0-3.5h-3.9c-15.966 0-28.955-12.538-28.955-27.949a5.4 5.4 0 0 1 5.511-5.273h10.773v1.612a6.714 6.714 0 0 0 6.707 6.706h1.6a6.714 6.714 0 0 0 6.706-6.706v-1.615h20.065v.1a6.942 6.942 0 0 0 6.934 6.934 3.439 3.439 0 0 1 3.431 3.445v6.222a6.942 6.942 0 0 0 6.934 6.934h1.7a6.942 6.942 0 0 0 6.934-6.934v-16.7h16.645a5.4 5.4 0 0 1 5.511 5.273c0 15.411-12.989 27.949-28.955 27.949h-16.243a1.75 1.75 0 0 0 0 3.5h16.245c17.9 0 32.455-14.108 32.455-31.449a8.86 8.86 0 0 0 -7.748-8.676 9.346 9.346 0 0 0 2.161-5.984v-3.087a9.377 9.377 0 0 0 -3.949-7.637 9.374 9.374 0 0 0 3.949-7.636v-3.087a9.495 9.495 0 0 0 -.128-1.509c.788.417 1.568.848 2.3 1.254 2.936 1.628 5.136 2.848 6.842 2.848a2.769 2.769 0 0 0 1.64-.5c.662-.461 1.385-1.427 1.072-3.394zm-97.617 28.634a5.893 5.893 0 0 1 -5.887-5.887v-3.086a5.894 5.894 0 0 1 5.887-5.887h4.809v14.86zm16.319 5.112a3.209 3.209 0 0 1 -3.206 3.206h-1.6a3.21 3.21 0 0 1 -3.207-3.206v-19.972h8.01zm3.5-19.972h5.933v6.4a6.943 6.943 0 0 0 6.935 6.935h3.765a3.432 3.432 0 0 1 2.854 1.527h-19.487zm42.5 35.056a3.438 3.438 0 0 1 -3.434 3.434h-1.7a3.438 3.438 0 0 1 -3.434-3.434v-6.217a6.942 6.942 0 0 0 -6.935-6.935 3.438 3.438 0 0 1 -3.434-3.434v-1.7c0-.035-.005-.07-.006-.105 0-.018.006-.035.006-.053 0-.054-.011-.106-.016-.16a6.937 6.937 0 0 0 -6.914-6.619h-3.77a3.439 3.439 0 0 1 -3.43-3.435v-6.4h44.01v2.246a3.439 3.439 0 0 1 -3.435 3.435h-.565a6.942 6.942 0 0 0 -6.935 6.934zm20.069-26.083a5.893 5.893 0 0 1 -5.887 5.887h-10.679v-2.245a3.438 3.438 0 0 1 3.435-3.434h.565a6.942 6.942 0 0 0 6.935-6.935v-2.233a5.889 5.889 0 0 1 5.634 5.874zm0-21.446v3.087a5.893 5.893 0 0 1 -5.887 5.886h-76.5a5.893 5.893 0 0 1 -5.887-5.886v-3.087a5.867 5.867 0 0 1 1.163-3.474 5.6 5.6 0 0 1 1.422-.24c1.065 0 2.179 1.041 3.47 2.246 1.91 1.784 4.287 4 7.941 4h.005c4.437 0 7.219-1.6 9.673-3.01 1.96-1.125 3.652-2.1 5.984-2.1 2.606 0 4 .952 5.773 2.158a14.147 14.147 0 0 0 17.417 0c1.77-1.206 3.167-2.158 5.772-2.158 2.331 0 4.025.972 5.984 2.1 2.454 1.41 5.236 3.007 9.673 3.01h.006c3.653 0 6.03-2.22 7.94-4 1.29-1.206 2.405-2.247 3.471-2.247a5.622 5.622 0 0 1 1.42.239 5.862 5.862 0 0 1 1.163 3.476zm7.369-3.316a44.124 44.124 0 0 0 -6.784-3.282 1.763 1.763 0 0 0 -.337-.108 9.67 9.67 0 0 0 -2.832-.508c-2.446 0-4.182 1.621-5.861 3.189s-3.277 3.061-5.55 3.061c-3.5 0-5.655-1.237-7.932-2.545-2.193-1.26-4.462-2.562-7.727-2.562a12.575 12.575 0 0 0 -7.743 2.765 10.69 10.69 0 0 1 -13.476 0 12.571 12.571 0 0 0 -7.743-2.765c-3.265 0-5.533 1.3-7.727 2.562-2.277 1.308-4.428 2.542-7.932 2.545-2.274 0-3.866-1.487-5.552-3.062s-3.414-3.188-5.859-3.188a9.681 9.681 0 0 0 -2.856.516 1.724 1.724 0 0 0 -.267.085 43.7 43.7 0 0 0 -6.831 3.3 42.035 42.035 0 0 1 -4.324 2.2c.616-2.418 3.651-6.2 8.457-10.558a9.16 9.16 0 0 0 3.16.568h88.43a9.16 9.16 0 0 0 3.16-.568c4.807 4.354 7.841 8.141 8.457 10.559a42.054 42.054 0 0 1 -4.328-2.204z"/><path d="m60.288 119.943h-4.5a1.75 1.75 0 0 0 0 3.5h4.5a1.75 1.75 0 0 0 0-3.5z"/><path d="m23.593 98.3a1.75 1.75 0 0 0 -3.328 1.081 23.772 23.772 0 0 0 15.565 14.441 1.75 1.75 0 0 0 .986-3.359 20.235 20.235 0 0 1 -13.223-12.163z"/><path d="m98.146 31.69a1.75 1.75 0 0 0 1.238-2.99l-1.984-1.977a1.75 1.75 0 1 0 -2.471 2.477l1.98 1.98a1.742 1.742 0 0 0 1.237.51z"/><path d="m28.493 29.183-1.55 2.026a1.75 1.75 0 0 0 2.781 2.126l1.549-2.026a1.75 1.75 0 0 0 -2.78-2.126z"/><path d="m65.378 29.546a1.749 1.749 0 0 0 -.386 2.444l.953 1.311a1.75 1.75 0 1 0 2.83-2.058l-.953-1.31a1.75 1.75 0 0 0 -2.444-.387z"/><path d="m50.141 16.473a1.75 1.75 0 0 0 0 3.5h2.741a1.75 1.75 0 0 0 0-3.5z"/><path d="m77.253 22.073a1.734 1.734 0 0 0 .732.162 1.751 1.751 0 0 0 1.59-1.017l1.044-2.261a1.75 1.75 0 1 0 -3.178-1.467l-1.041 2.261a1.75 1.75 0 0 0 .853 2.322z"/></g></g></svg>