<svg height="512" viewBox="0 0 64 64" width="512" xmlns="http://www.w3.org/2000/svg"><g id="Bread"><path d="m35.08 18.11-2.25 8.39a3 3 0 1 1 -5.8-1.55l1.83-6.84h.01c1.03-.07 2.07-.11 3.13-.11 1.04 0 2.07.04 3.08.11z" fill="#aa6100"/><path d="m21.3 19.41-1.48 5.54a3 3 0 1 1 -5.79-1.55l.34-1.28a33.88 33.88 0 0 1 6.93-2.71z" fill="#aa6100"/><path d="m17.15 26.07a3 3 0 0 1 -2.12-3.67l.185-.7c-.282.138-.571.271-.845.416l-.34 1.28a2.989 2.989 0 0 0 5.432 2.344 2.979 2.979 0 0 1 -2.312.33z" fill="#804900"/><path d="m28.87 18.11h-.01l-1.83 6.84a2.975 2.975 0 0 0 3.408 3.725 2.868 2.868 0 0 1 -.288-.045 3.005 3.005 0 0 1 -2.12-3.68l1.83-6.84h.01c.865-.059.03-.07-1 0z" fill="#804900"/><path d="m47.68 21.18-.81 3.02a3 3 0 0 1 -5.8-1.56l.92-3.42a35.262 35.262 0 0 1 5.69 1.96z" fill="#aa6100"/><path d="m44.19 26.32a3.005 3.005 0 0 1 -2.12-3.68l.846-3.144c-.312-.088-.609-.2-.926-.276l-.92 3.42a3.005 3.005 0 0 0 2.12 3.68 2.967 2.967 0 0 0 1.3.049 2.821 2.821 0 0 1 -.3-.049z" fill="#804900"/><path d="m14.37 22.12-.34 1.28a3 3 0 1 0 5.79 1.55l1.48-5.54.58-2.16a40.15 40.15 0 0 1 7.53-1.17l-.54 2.03h-.01l-1.83 6.84a3 3 0 1 0 5.8 1.55l2.25-8.39.52-1.95a39.63 39.63 0 0 1 6.89 1.19l-.5 1.87-.92 3.42a3 3 0 0 0 5.8 1.56l.81-3.02.48-1.79c7.75 3.59 12.84 9.69 12.84 16.61 0 11.05-12.98 12-29 12s-29-.95-29-12c0-6.67 4.72-12.57 11.99-16.19z" fill="#ff9811"/><rect fill="#ffa733" height="4" rx="2" width="7" x="6" y="30"/></g></svg>