<svg id="Capa_1" enable-background="new 0 0 512 512" height="512" viewBox="0 0 512 512" width="512" xmlns="http://www.w3.org/2000/svg"><g><g><path clip-rule="evenodd" d="m426.248 96.275c-3.728-3.614-8.024-6.858-12.919-9.533-4.866-2.675-9.959-4.667-15.167-5.976-10.671-2.646-21.797-2.476-32.126.228-14.455 3.813-27.403 12.606-35.655 25.611-2.618 4.126-4.041 7.598-5.776 12.151-7.968 26.92-25.98 64.88-24.842 122.134l80.728-18.582 48.83-51.136c1.935-2.191 3.699-4.553 5.293-7.057 8.337-13.118 10.301-28.115 6.801-41.831-2.448-9.647-7.598-18.667-15.167-26.009z" fill="#ffd064" fill-rule="evenodd"/></g><g><path clip-rule="evenodd" d="m405.162 57.262c-2.39-9.049-7.171-17.557-13.858-23.59l-17.329-15.679c-3.557-3.216-5.15-2.817-6.602 1.594l-7.085 21.513c-4.126 12.492-1.594 28.029 5.748 39.896 10.329-2.703 27.545 8.451 38.244 11.126 0-7.884-1.309-24.246.882-34.86z" fill="#ccf49e" fill-rule="evenodd"/></g><g><path clip-rule="evenodd" d="m445.427 78.575c5.236-8.025 8.337-17.244 8.195-25.981l-.37-22.48c-.085-4.638-1.508-5.435-5.89-3.272l-21.342 10.557c-8.48 4.183-15.821 11.439-20.858 19.862-4.411 7.37-7 15.651-7 23.505 5.663 14.313 15.025 20.858 28.086 15.509 7.654-3.898 14.341-10.273 19.179-17.7z" fill="#ccf49e" fill-rule="evenodd"/></g><g><path clip-rule="evenodd" d="m481.082 107.743 16.817-16.163c3.443-3.301 3.045-4.809-1.707-6.147l-23.077-6.63c-8.537-2.447-18.382-2.39-27.687-.228-4.837 7.427-20.573 13.801-28.199 17.7 7.541 7.342 21.74 16.362 24.187 26.009 14.539.114 30.048-5.264 39.666-14.541z" fill="#ccf49e" fill-rule="evenodd"/></g><g><path clip-rule="evenodd" d="m409.203 123.735c2.846 11.155 2.077 23.163-2.789 34.318-1.138 2.533-2.476 5.065-4.012 7.512-1.594 2.504-3.386 4.866-5.293 7.057-15.821 16.562-31.642 33.123-47.435 49.685h30.817l20.374-21.342 28.455-29.794c1.935-2.191 3.699-4.553 5.293-7.057 8.337-13.118 10.301-28.115 6.801-41.831-2.447-9.647-7.598-18.667-15.167-26.009-3.728-3.614-8.024-6.858-12.919-9.533-4.866-2.675-9.959-4.667-15.167-5.976-10.671-2.646-21.797-2.476-32.126.228-.825.228-1.622.455-2.447.711.797.142 1.565.341 2.333.541 20.66 5.152 37.932 20.49 43.282 41.49z" fill="#ffa95f" fill-rule="evenodd"/></g><g><path clip-rule="evenodd" d="m367.373 19.586-2.476 7.456 12.122 10.956c6.659 6.033 11.439 14.541 13.829 23.562-3.244 5.464-5.52 11.411-6.488 17.33 4.61.142 9.248.74 13.801 1.878 0-7.854 2.589-16.135 7-23.505-2.39-9.049-7.171-17.557-13.858-23.59l-17.329-15.679c-3.556-3.218-5.149-2.819-6.601 1.592z" fill="#b3e59e" fill-rule="evenodd"/></g><g><path clip-rule="evenodd" d="m437.175 48.668c.142 8.708-2.931 17.927-8.167 25.952-3.472 5.293-7.854 10.045-12.862 13.773 3.728 2.305 7.114 4.98 10.102 7.882 7.654-3.899 14.342-10.273 19.179-17.7 5.236-8.025 8.337-17.244 8.195-25.981l-.37-22.48c-.085-4.638-1.508-5.435-5.89-3.272l-10.443 5.179z" fill="#b3e59e" fill-rule="evenodd"/></g><g><path clip-rule="evenodd" d="m468.561 98.552c-7.655 7.37-19.037 12.265-30.675 13.915 1.48 3.159 2.675 6.46 3.528 9.817 14.541.114 30.049-5.264 39.667-14.541l16.817-16.163c3.443-3.301 3.045-4.809-1.707-6.147l-10.756-3.102c-.028.028-.057.057-.085.057z" fill="#b3e59e" fill-rule="evenodd"/></g><g><path clip-rule="evenodd" d="m209.816 119.524c-9.703-7.228-19.748-8.138-19.748-36.31v-36.652l-38.671-9.049-33.691 9.049v36.652c0 52.53-37.447 37.363-37.447 88.727v50.368l106.651 27.119c25.267-12.351 37.958-73.447 22.906-129.904z" fill="#c3ddff" fill-rule="evenodd"/></g><g><path clip-rule="evenodd" d="m198.803 43.233v-30.079c0-1.821-1.622-3.301-3.585-3.301h-82.663c-1.963 0-3.557 1.48-3.557 3.301v30.078c0 1.821 1.594 3.329 3.557 3.329h5.15 72.362 5.15c1.964.001 3.586-1.507 3.586-3.328z" fill="#ccf49e" fill-rule="evenodd"/></g><g><path clip-rule="evenodd" d="m161.925 46.562v41.148c0 28.172 10.045 29.082 19.748 36.31-6.858 14.143-12.549 30.135-16.618 47.323-4.211 17.757-6.26 35.03-6.346 50.965h28.199c-.313-17.159 1.679-36.026 6.289-55.461 4.069-17.188 9.789-33.18 16.618-47.323-9.703-7.228-19.748-8.138-19.748-36.31v-36.652z" fill="#9dc6fb" fill-rule="evenodd"/></g><g><path clip-rule="evenodd" d="m170.632 13.154v30.078c0 1.821-1.594 3.329-3.557 3.329h22.992 5.15c1.963 0 3.585-1.508 3.585-3.329v-30.078c0-1.821-1.622-3.301-3.585-3.301h-28.142c1.964 0 3.557 1.48 3.557 3.301z" fill="#b3e59e" fill-rule="evenodd"/></g><g><path clip-rule="evenodd" d="m324.605 118.756c-4.211-33.009-18.155-56.77-39.24-61.124-26.008-5.35-55.574 20.432-75.549 61.892-6.829 14.143-12.549 30.135-16.618 47.323-4.61 19.436-6.602 38.302-6.289 55.461l72.732 58.421 51.049-58.421c3.5-9.277 6.516-19.123 8.964-29.395 6.317-26.778 7.74-52.474 4.951-74.157z" fill="#ecbd83" fill-rule="evenodd"/></g><g><path clip-rule="evenodd" d="m255.999 502.147 18.069-98.999-18.069-180.839-224.429 81.298v193.389c0 2.817 2.305 5.122 5.094 5.151z" fill="#ffc89f" fill-rule="evenodd"/></g><g><path clip-rule="evenodd" d="m480.427 496.996v-193.389l-224.428-81.299v279.839h219.278.057c2.817-.029 5.093-2.334 5.093-5.151z" fill="#f7b081" fill-rule="evenodd"/></g><g><path clip-rule="evenodd" d="m217.129 298.542 38.87-76.234h-69.09-106.651-28.228c-2.76 0-6.203 2.277-7.598 5.037l-36.309 71.197c-1.423 2.789-.285 5.065 2.476 5.065h20.971 177.961c2.76 0 6.203-2.276 7.598-5.065z" fill="#ffdecf" fill-rule="evenodd"/></g><g><path clip-rule="evenodd" d="m503.874 298.542-36.309-71.198c-1.394-2.76-4.837-5.037-7.598-5.037h-79.476-69.801-54.691l38.87 76.234c1.394 2.789 4.837 5.065 7.598 5.065h177.961 20.972c2.787.001 3.897-2.275 2.474-5.064z" fill="#ffdecf" fill-rule="evenodd"/></g><g><path clip-rule="evenodd" d="m480.427 303.607h-177.96c-2.76 0-6.203-2.277-7.598-5.065l-38.87-76.234v51.079l27.573 55.547c1.394 2.789 4.837 5.037 7.598 5.037h153.233c8.565 0 7.313-1.48 7.313 6.943v161.233h23.561c2.846-.028 5.15-2.305 5.15-5.151z" fill="#db9975" fill-rule="evenodd"/></g><g><path clip-rule="evenodd" d="m209.531 303.607h-177.961v30.363h188.062c2.76 0 6.175-2.277 7.598-5.037l28.769-55.547v-51.079l-38.87 76.234c-1.395 2.79-4.838 5.066-7.598 5.066z" fill="#fcb788" fill-rule="evenodd"/></g><g><path clip-rule="evenodd" d="m459.968 222.308h-39.012c2.789 0 6.203 2.277 7.598 5.037l36.309 71.198c1.394 2.76.313 5.008-2.39 5.065h17.955 20.972c2.789 0 3.898-2.277 2.476-5.065l-36.309-71.198c-1.396-2.761-4.839-5.037-7.599-5.037z" fill="#ffcbbe" fill-rule="evenodd"/></g><g><path clip-rule="evenodd" d="m219.49 222.308-38.87 76.234c-1.423 2.789-4.809 5.037-7.598 5.065h.028 36.48c2.76 0 6.203-2.277 7.598-5.065l38.87-76.234z" fill="#ffcbbe" fill-rule="evenodd"/></g><g><path clip-rule="evenodd" d="m260.409 61.245c19.691 5.606 32.724 28.798 36.793 60.498 2.76 21.712 1.366 47.38-4.98 74.157-2.191 9.191-4.837 18.013-7.854 26.407h26.321c3.5-9.277 6.516-19.123 8.964-29.395 6.317-26.777 7.74-52.473 4.951-74.157-4.211-33.009-18.155-56.77-39.24-61.124-8.109-1.65-16.56-.312-24.955 3.614z" fill="#e2a975" fill-rule="evenodd"/></g><g><path d="m510.555 295.135-36.296-71.172c-2.68-5.305-8.691-9.155-14.292-9.155h-61.945l36.722-38.456c.067-.07.133-.142.197-.215 2.161-2.447 4.18-5.137 6.004-8.004 7.517-11.847 10.707-25.381 9.309-38.882 13.874-1.711 27.142-7.534 36.023-16.1l16.811-16.156c1.41-1.352 5.7-5.465 4.313-11.01-1.394-5.578-7.05-7.17-9.14-7.759l-23.081-6.631c-5.244-1.504-11.004-2.207-16.932-2.114 1.934-5.583 2.958-11.354 2.872-17.008l-.371-22.495c-.034-1.864-.139-7.537-4.877-10.422-4.785-2.915-9.905-.389-11.838.566l-21.331 10.552c-5.733 2.826-10.977 6.786-15.491 11.49-2.913-5.4-6.602-10.195-10.877-14.052l-17.332-15.681c-1.561-1.412-5.708-5.162-11.074-3.741-5.331 1.412-7.1 6.787-7.68 8.552l-7.084 21.507c-3.86 11.688-2.927 25.591 2.271 37.983-10.688 4.338-20.28 11.248-27.563 20.466-2.611-9.138-6.123-17.312-10.522-24.212-7.884-12.364-18.421-20.212-30.478-22.699-28.016-5.755-58.514 18.04-79.988 58.29-5.689-3.83-9.319-8.064-9.319-25.362v-29.403c4.987-1.056 8.736-5.396 8.736-10.579v-30.079c0-5.955-4.973-10.8-11.085-10.8h-82.663c-6.097 0-11.057 4.845-11.057 10.8v30.078c0 5.181 3.737 9.519 8.707 10.578v29.403c0 23.266-7.71 30.838-16.637 39.605-9.755 9.58-20.81 20.438-20.81 49.122v42.867h-20.727c-5.601 0-11.612 3.85-14.279 9.13l-36.308 71.197c-1.946 3.813-1.922 7.86.064 11.104 1.868 3.05 5.266 4.87 9.092 4.87h13.471v71.607c0 4.107 3.164 7.688 7.269 7.811 4.247.127 7.731-3.278 7.731-7.496v-71.921h170.461c5.621 0 11.637-3.874 14.279-9.158l24.689-48.422v241.119h-209.429v-76.844c0-4.142-3.358-7.5-7.5-7.5s-7.5 3.358-7.5 7.5v79.194c0 6.975 5.675 12.65 12.651 12.65h438.556c6.975 0 12.65-5.675 12.65-12.65v-185.883l13.549-.008c3.883-.04 7.181-1.834 9.051-4.923 1.954-3.227 1.964-7.255.028-11.049zm-39.512-209.124 16.804 4.827-11.972 11.506c-6.842 6.6-17.816 11.135-29.012 12.199-2.186-6.021-5.277-11.62-9.161-16.677 4.635-3.53 8.765-7.808 12.219-12.552 7.436-1.331 14.843-1.102 21.122.697zm-41.697-41.889 16.501-8.163.276 16.75c.188 12.361-7.892 26.544-19.022 34.307-3.124-2.533-6.506-4.832-10.148-6.84-3.504-1.934-7.125-3.517-10.814-4.801 2.175-12.519 11.58-25.523 23.207-31.253zm-61.935-.677 5.399-16.392 13.47 12.188c4.73 4.267 8.488 10.245 10.765 17.05-2.625 5.001-4.524 10.307-5.537 15.668-7.201-.887-14.463-.658-21.509.588-4.399-9.455-5.457-20.414-2.588-29.102zm-40.459 151.193c6.239-26.393 7.922-52.368 5.307-74.911 1.212-3.185 2.617-6.217 4.455-9.104 14.924-23.524 47.669-31.292 72.993-17.313 12.427 6.852 21.105 17.784 24.434 30.782 3.15 12.298 1.069 25.085-5.854 35.996-.233.365-.475.721-.715 1.079l-42.661-23.538c-3.627-2.001-8.189-.683-10.19 2.944-2.001 3.626-.683 8.189 2.944 10.19l39.804 21.962-18.034 18.886-29.433-16.247c-3.627-2.001-8.189-.685-10.19 2.941-2.002 3.626-.685 8.189 2.941 10.19l25.969 14.335-11.439 11.979h-56.015c2.143-6.558 4.049-13.304 5.684-20.171zm-210.454-177.285h74.806v21.709h-74.806zm-28.74 154.587c0-22.391 7.563-29.819 16.321-38.42 9.902-9.725 21.126-20.747 21.126-50.307v-29.151h57.363v29.152c0 25.002 7.611 32.423 17.697 38.949-5.813 13.085-10.707 27.517-14.364 42.953-4.007 16.895-6.178 33.573-6.482 49.692h-91.661zm122.667 123.24c-.169.302-.765.774-1.153.928h-191.488l33.337-65.37c.173-.303.776-.777 1.167-.93h191.469zm-15.996-80.372c.304-14.962 2.329-30.475 6.066-46.232 14.785-62.4 52.962-109.846 83.355-103.599 8.103 1.671 15.12 7.078 20.854 16.071 14.93 23.413 17.933 66.645 7.654 110.126-1.931 8.107-4.275 16.022-6.945 23.633h-110.984zm207.741 81.356c-4.142.002-7.498 3.362-7.495 7.504.002 4.141 3.359 7.496 7.5 7.495h.004l70.748-.041v183.523h-209.428v-241.118l24.662 48.369c2.64 5.278 8.623 9.152 14.299 9.211l64.936.057h.006c4.139 0 7.496-3.353 7.5-7.493.003-4.142-3.351-7.503-7.493-7.506l-64.65-.056c-.396-.147-1.015-.627-1.208-.973l-33.309-65.328h191.468c.39.153.994.628 1.174.944l33.332 65.36z"/><path d="m287.078 178.538-58.277-12.008c-4.055-.832-8.023 1.775-8.859 5.832s1.775 8.023 5.832 8.859l58.277 12.008c.511.105 1.02.156 1.521.156 3.484 0 6.607-2.442 7.338-5.988.835-4.057-1.776-8.023-5.832-8.859z"/><path d="m248.37 137.626 34.858 7.171c.51.105 1.018.155 1.519.155 3.485 0 6.608-2.443 7.338-5.99.834-4.057-1.778-8.023-5.835-8.857l-34.858-7.171c-4.056-.835-8.023 1.778-8.857 5.835s1.778 8.023 5.835 8.857z"/><path d="m81.823 413.521h62.887c4.142 0 7.5-3.358 7.5-7.5s-3.358-7.5-7.5-7.5h-62.887c-4.142 0-7.5 3.358-7.5 7.5s3.358 7.5 7.5 7.5z"/><path d="m81.823 451.254h62.887c4.142 0 7.5-3.358 7.5-7.5s-3.358-7.5-7.5-7.5h-62.887c-4.142 0-7.5 3.358-7.5 7.5s3.358 7.5 7.5 7.5z"/></g></g></svg>