<svg height="512" viewBox="0 0 512 512" width="512" xmlns="http://www.w3.org/2000/svg"><g id="flat"><path d="m472 376-8-8h-248v56l16-8 16 8 16-8 16 8 16-8 16 8 16-8 16 8 16-8 16 8 16-8 16 8 16-8 16 8 16-8 16 8z" fill="#6cbae5"/><g fill="#428dc5"><path d="m336 48h16v32h-16z"/><path d="m304 48h16v32h-16z"/><path d="m272 48h16v32h-16z"/><path d="m240 48h16v32h-16z"/><path d="m432 48h16v32h-16z"/><path d="m400 48h16v32h-16z"/><path d="m368 48h16v32h-16z"/><path d="m432 368h16v32h-16z"/><path d="m400 368h16v32h-16z"/><path d="m368 368h16v32h-16z"/></g><path d="m472 72-16 8h-240v-56l16 8 16-8 16 8 16-8 16 8 16-8 16 8 16-8 16 8 16-8 16 8 16-8 16 8 16-8 16 8 16-8z" fill="#6cbae5"/><path d="m472 376h-256l8-56-4.007-48.09a599.961 599.961 0 0 1 -.306-95.845l4.313-56.065-8-48h256l-8 48 4.313 56.065a599.961 599.961 0 0 1 -.306 95.845l-4.007 48.09z" fill="#4799cf"/><circle cx="344" cy="224" fill="#428dc5" r="88"/><ellipse cx="324" cy="224" fill="#a45e14" rx="36" ry="40"/><path d="m280 400h-256l8-32v-224l-8-32h256l-8 32v224z" fill="#fbb540"/><path d="m280 112h-256v-40l16 8 16-8 16 8 16-8 16 8 16-8 16 8 16-8 16 8 16-8 16 8 16-8 16 8 16-8 16 8 16-8z" fill="#ea9d2d"/><path d="m280 400h-256v40l16-8 16 8 16-8 16 8 16-8 16 8 16-8 16 8 16-8 16 8 16-8 16 8 16-8 16 8 16-8 16 8z" fill="#ea9d2d"/><circle cx="152" cy="248" fill="#6b9777" r="64"/><path d="m214 280h-90.55a85.634 85.634 0 0 0 -59.45 24v-70a26 26 0 0 1 26-26h100.073a85.63 85.63 0 0 0 47.5-14.382l2.427-1.618v62a26 26 0 0 1 -26 26z" fill="#ea9d2d"/><path d="m400 224a40 40 0 0 1 -80 0z" fill="#ea9d2d"/><path d="m352 488-32-16h-152l-40 16v-144l40 16h152l32-16z" fill="#dc4d41"/><path d="m128 408h24v16h-24z" fill="#b94137"/><path d="m128 440h24v16h-24z" fill="#b94137"/><path d="m128 376h24v16h-24z" fill="#b94137"/><path d="m328 408h24v16h-24z" fill="#b94137"/><path d="m328 440h24v16h-24z" fill="#b94137"/><path d="m328 376h24v16h-24z" fill="#b94137"/><circle cx="240" cy="416" fill="#fd9226" r="32"/></g></svg>